<svg id="visual" viewBox="0 0 900 600" width="900" height="600" xmlns="http://www.w3.org/2000/svg" xmlns:xlink="http://www.w3.org/1999/xlink" version="1.1"><path d="M0 151L25 137.7C50 124.3 100 97.7 150 87.2C200 76.7 250 82.3 300 98C350 113.7 400 139.3 450 153.3C500 167.3 550 169.7 600 157.7C650 145.7 700 119.3 750 119.7C800 120 850 147 875 160.5L900 174L900 601L875 601C850 601 800 601 750 601C700 601 650 601 600 601C550 601 500 601 450 601C400 601 350 601 300 601C250 601 200 601 150 601C100 601 50 601 25 601L0 601Z" fill="#f552ff"></path><path d="M0 174L25 171.2C50 168.3 100 162.7 150 159.8C200 157 250 157 300 174.8C350 192.7 400 228.3 450 237.7C500 247 550 230 600 224.7C650 219.3 700 225.7 750 230.7C800 235.7 850 239.3 875 241.2L900 243L900 601L875 601C850 601 800 601 750 601C700 601 650 601 600 601C550 601 500 601 450 601C400 601 350 601 300 601C250 601 200 601 150 601C100 601 50 601 25 601L0 601Z" fill="#d251fa"></path><path d="M0 345L25 332C50 319 100 293 150 289C200 285 250 303 300 315.7C350 328.3 400 335.7 450 327.7C500 319.7 550 296.3 600 287.3C650 278.3 700 283.7 750 294.5C800 305.3 850 321.7 875 329.8L900 338L900 601L875 601C850 601 800 601 750 601C700 601 650 601 600 601C550 601 500 601 450 601C400 601 350 601 300 601C250 601 200 601 150 601C100 601 50 601 25 601L0 601Z" fill="#ad4ff4"></path><path d="M0 440L25 431.8C50 423.7 100 407.3 150 409.8C200 412.3 250 433.7 300 443.5C350 453.3 400 451.7 450 435.3C500 419 550 388 600 377.7C650 367.3 700 377.7 750 394.2C800 410.7 850 433.3 875 444.7L900 456L900 601L875 601C850 601 800 601 750 601C700 601 650 601 600 601C550 601 500 601 450 601C400 601 350 601 300 601C250 601 200 601 150 601C100 601 50 601 25 601L0 601Z" fill="#854dec"></path><path d="M0 476L25 479.3C50 482.7 100 489.3 150 488C200 486.7 250 477.3 300 484.2C350 491 400 514 450 520.5C500 527 550 517 600 516.5C650 516 700 525 750 526.5C800 528 850 522 875 519L900 516L900 601L875 601C850 601 800 601 750 601C700 601 650 601 600 601C550 601 500 601 450 601C400 601 350 601 300 601C250 601 200 601 150 601C100 601 50 601 25 601L0 601Z" fill="#574ae2"></path></svg>