<svg id="visual" viewBox="0 0 900 600" width="900" height="600" xmlns="http://www.w3.org/2000/svg" xmlns:xlink="http://www.w3.org/1999/xlink" version="1.1"><rect x="0" y="0" width="900" height="600" fill="#540B0E"></rect><path d="M0 129L30 137.2C60 145.3 120 161.7 180 158C240 154.3 300 130.7 360 125.7C420 120.7 480 134.3 540 140.3C600 146.3 660 144.7 720 140.7C780 136.7 840 130.3 870 127.2L900 124L900 601L870 601C840 601 780 601 720 601C660 601 600 601 540 601C480 601 420 601 360 601C300 601 240 601 180 601C120 601 60 601 30 601L0 601Z" fill="#9e2a2b"></path><path d="M0 291L30 296.2C60 301.3 120 311.7 180 299.7C240 287.7 300 253.3 360 254.7C420 256 480 293 540 288.5C600 284 660 238 720 224.2C780 210.3 840 228.7 870 237.8L900 247L900 601L870 601C840 601 780 601 720 601C660 601 600 601 540 601C480 601 420 601 360 601C300 601 240 601 180 601C120 601 60 601 30 601L0 601Z" fill="#bb603b"></path><path d="M0 354L30 360.7C60 367.3 120 380.7 180 383.7C240 386.7 300 379.3 360 373.7C420 368 480 364 540 353.8C600 343.7 660 327.3 720 312.8C780 298.3 840 285.7 870 279.3L900 273L900 601L870 601C840 601 780 601 720 601C660 601 600 601 540 601C480 601 420 601 360 601C300 601 240 601 180 601C120 601 60 601 30 601L0 601Z" fill="#d39257"></path><path d="M0 381L30 388.3C60 395.7 120 410.3 180 418.3C240 426.3 300 427.7 360 423C420 418.3 480 407.7 540 415.3C600 423 660 449 720 452.5C780 456 840 437 870 427.5L900 418L900 601L870 601C840 601 780 601 720 601C660 601 600 601 540 601C480 601 420 601 360 601C300 601 240 601 180 601C120 601 60 601 30 601L0 601Z" fill="#e9c37f"></path><path d="M0 458L30 469.3C60 480.7 120 503.3 180 508.8C240 514.3 300 502.7 360 499.2C420 495.7 480 500.3 540 495.8C600 491.3 660 477.7 720 468.8C780 460 840 456 870 454L900 452L900 601L870 601C840 601 780 601 720 601C660 601 600 601 540 601C480 601 420 601 360 601C300 601 240 601 180 601C120 601 60 601 30 601L0 601Z" fill="#fff3b0"></path></svg>